<svg width="20" height="21" viewBox="0 0 20 21" fill="none" xmlns="http://www.w3.org/2000/svg">
<g id="icon">
<g id="Group 1">
<g id="Clip path group">
<mask id="mask0_21903_74651" style="mask-type:luminance" maskUnits="userSpaceOnUse" x="0" y="5" width="8" height="11">
<g id="7c4f4d2fea">
<path id="Vector" d="M0.931641 5.00586H7.27098V15.9857H0.931641V5.00586Z" fill="white"/>
</g>
</mask>
<g mask="url(#mask0_21903_74651)">
<g id="Group">
<g id="Clip path group_2">
<mask id="mask1_21903_74651" style="mask-type:luminance" maskUnits="userSpaceOnUse" x="0" y="1" width="20" height="19">
<g id="71c43059f2">
<path id="Vector_2" d="M18.8602 8.80751H10.2123V12.393H15.1901C14.7261 14.6708 12.7856 15.9784 10.2123 15.9784C7.17501 15.9784 4.72828 13.5319 4.72828 10.4948C4.72828 7.45769 7.17501 5.01115 10.2123 5.01115C11.52 5.01115 12.7012 5.47517 13.6292 6.23442L16.3291 3.53483C14.6839 2.10065 12.5747 1.21484 10.2123 1.21484C5.06575 1.21484 0.931641 5.34862 0.931641 10.4948C0.931641 15.6409 5.06575 19.7747 10.2123 19.7747C14.8526 19.7747 19.0711 16.4002 19.0711 10.4948C19.0711 9.94642 18.9867 9.35585 18.8602 8.80751Z" fill="white"/>
</g>
</mask>
<g mask="url(#mask1_21903_74651)">
<g id="Group_2">
<path id="Vector_3" d="M0.0878906 15.977V5.00977L7.25929 10.4934L0.0878906 15.977Z" fill="#FBBC05"/>
</g>
</g>
</g>
</g>
</g>
</g>
<g id="Clip path group_3">
<mask id="mask2_21903_74651" style="mask-type:luminance" maskUnits="userSpaceOnUse" x="0" y="1" width="20" height="10">
<g id="1e7bcd73ea">
<path id="Vector_4" d="M0.931641 1.20898H19.0711V10.4966H0.931641V1.20898Z" fill="white"/>
</g>
</mask>
<g mask="url(#mask2_21903_74651)">
<g id="Group_3">
<g id="Clip path group_4">
<mask id="mask3_21903_74651" style="mask-type:luminance" maskUnits="userSpaceOnUse" x="0" y="1" width="20" height="19">
<g id="106a7501b6">
<path id="Vector_5" d="M18.8602 8.80947H10.2123V12.3949H15.1901C14.7261 14.6727 12.7856 15.9804 10.2123 15.9804C7.17501 15.9804 4.72828 13.5338 4.72828 10.4967C4.72828 7.45965 7.17501 5.01311 10.2123 5.01311C11.52 5.01311 12.7012 5.47713 13.6292 6.23638L16.3291 3.53679C14.6839 2.1026 12.5747 1.2168 10.2123 1.2168C5.06575 1.2168 0.931641 5.35057 0.931641 10.4967C0.931641 15.6429 5.06575 19.7767 10.2123 19.7767C14.8526 19.7767 19.0711 16.4021 19.0711 10.4967C19.0711 9.94837 18.9867 9.3578 18.8602 8.80947Z" fill="white"/>
</g>
</mask>
<g mask="url(#mask3_21903_74651)">
<g id="Group_4">
<path id="Vector_6" d="M0.0878906 5.01303L7.25929 10.4966L10.2122 7.92358L20.3365 6.27848V0.373047H0.0878906V5.01303Z" fill="#EA4335"/>
</g>
</g>
</g>
</g>
</g>
</g>
<g id="Clip path group_5">
<mask id="mask4_21903_74651" style="mask-type:luminance" maskUnits="userSpaceOnUse" x="0" y="1" width="20" height="19">
<g id="e20f06e835">
<path id="Vector_7" d="M0.931641 1.20898H19.0711V19.7756H0.931641V1.20898Z" fill="white"/>
</g>
</mask>
<g mask="url(#mask4_21903_74651)">
<g id="Group_5">
<g id="Clip path group_6">
<mask id="mask5_21903_74651" style="mask-type:luminance" maskUnits="userSpaceOnUse" x="0" y="1" width="20" height="19">
<g id="8ca6ea0984">
<path id="Vector_8" d="M18.8602 8.80947H10.2123V12.3949H15.1901C14.7261 14.6727 12.7856 15.9804 10.2123 15.9804C7.17501 15.9804 4.72828 13.5338 4.72828 10.4967C4.72828 7.45965 7.17501 5.01311 10.2123 5.01311C11.52 5.01311 12.7012 5.47713 13.6292 6.23638L16.3291 3.53679C14.6839 2.1026 12.5747 1.2168 10.2123 1.2168C5.06575 1.2168 0.931641 5.35057 0.931641 10.4967C0.931641 15.6429 5.06575 19.7767 10.2123 19.7767C14.8526 19.7767 19.0711 16.4021 19.0711 10.4967C19.0711 9.94837 18.9867 9.3578 18.8602 8.80947Z" fill="white"/>
</g>
</mask>
<g mask="url(#mask5_21903_74651)">
<g id="Group_6">
<path id="Vector_9" d="M0.0878906 15.9803L12.7433 6.27848L16.0759 6.70031L20.3365 0.373047V20.6203H0.0878906V15.9803Z" fill="#34A853"/>
</g>
</g>
</g>
</g>
</g>
</g>
<g id="Clip path group_7">
<mask id="mask6_21903_74651" style="mask-type:luminance" maskUnits="userSpaceOnUse" x="5" y="5" width="15" height="15">
<g id="084cc3978a">
<path id="Vector_10" d="M5.56641 5.00586H19.0716V19.7748H5.56641V5.00586Z" fill="white"/>
</g>
</mask>
<g mask="url(#mask6_21903_74651)">
<g id="Group_7">
<g id="Clip path group_8">
<mask id="mask7_21903_74651" style="mask-type:luminance" maskUnits="userSpaceOnUse" x="0" y="1" width="20" height="19">
<g id="402fdc6fec">
<path id="Vector_11" d="M18.8602 8.80751H10.2123V12.393H15.1901C14.7261 14.6708 12.7856 15.9784 10.2123 15.9784C7.17501 15.9784 4.72828 13.5319 4.72828 10.4948C4.72828 7.45769 7.17501 5.01115 10.2123 5.01115C11.52 5.01115 12.7012 5.47517 13.6292 6.23442L16.3291 3.53483C14.6839 2.10065 12.5747 1.21484 10.2123 1.21484C5.06575 1.21484 0.931641 5.34862 0.931641 10.4948C0.931641 15.6409 5.06575 19.7747 10.2123 19.7747C14.8526 19.7747 19.0711 16.4002 19.0711 10.4948C19.0711 9.94642 18.9867 9.35585 18.8602 8.80751Z" fill="white"/>
</g>
</mask>
<g mask="url(#mask7_21903_74651)">
<g id="Group_8">
<path id="Vector_12" d="M20.3369 20.617L7.25964 10.4934L5.57227 9.22796L20.3369 5.00977V20.617Z" fill="#4285F4"/>
</g>
</g>
</g>
</g>
</g>
</g>
</g>
</g>
</svg>
